<?xml version="1.0"?>
<svg xmlns="http://www.w3.org/2000/svg" xmlns:xlink="http://www.w3.org/1999/xlink" version="1.1" id="Capa_1" x="0px" y="0px" viewBox="0 0 508 508" style="enable-background:new 0 0 508 508;" xml:space="preserve" width="512px" height="512px" class=""><g><g>
	<g>
		<path d="M426.1,213V0H81.9v213H0v295h508V213H426.1z M426,229.4h50.4L426,269.7V229.4z M98.3,16.4h311.4v266.4L254,407.4    L98.3,282.8V16.4z M81.9,229.4v40.3l-50.4-40.3H81.9z M491.4,491.6h-475v0V238.3l160,128L74.2,441.2l9.7,13.2l105.7-77.5    l64.3,51.5l64.3-51.5l105.7,77.5l9.7-13.2l-102.2-74.9l160-128V491.6z" data-original="#000000" class="active-path" data-old_color="#000000" fill="#FFFFFF"/>
	</g>
</g><g>
	<g>
		<rect x="245.8" y="458.8" width="16.4" height="16.4" data-original="#000000" class="active-path" data-old_color="#000000" fill="#FFFFFF"/>
	</g>
</g><g>
	<g>
		<rect x="278.6" y="458.8" width="16.4" height="16.4" data-original="#000000" class="active-path" data-old_color="#000000" fill="#FFFFFF"/>
	</g>
</g><g>
	<g>
		<rect x="213" y="458.8" width="16.4" height="16.4" data-original="#000000" class="active-path" data-old_color="#000000" fill="#FFFFFF"/>
	</g>
</g><g>
	<g>
		<rect x="131.1" y="57.4" width="98.3" height="16.4" data-original="#000000" class="active-path" data-old_color="#000000" fill="#FFFFFF"/>
	</g>
</g><g>
	<g>
		<rect x="131.1" y="122.9" width="245.8" height="16.4" data-original="#000000" class="active-path" data-old_color="#000000" fill="#FFFFFF"/>
	</g>
</g><g>
	<g>
		<rect x="131.1" y="188.5" width="245.8" height="16.4" data-original="#000000" class="active-path" data-old_color="#000000" fill="#FFFFFF"/>
	</g>
</g><g>
	<g>
		<rect x="278.6" y="254" width="98.3" height="16.4" data-original="#000000" class="active-path" data-old_color="#000000" fill="#FFFFFF"/>
	</g>
</g></g> </svg>
