<?xml version="1.0"?>
<svg xmlns="http://www.w3.org/2000/svg" id="Layer_5" enable-background="new 0 0 64 64" height="512px" viewBox="0 0 64 64" width="512px"><g><path d="m63 1h-50v29.547c-1.281 2.228-2 4.785-2 7.453 0 2.416.587 4.692 1.606 6.716l-9.558 8.088c-1.302 1.1-2.048 2.709-2.048 4.414 0 3.188 2.594 5.782 5.782 5.782 1.705 0 3.313-.746 4.414-2.048l8.088-9.558c2.024 1.019 4.3 1.606 6.716 1.606 3.923 0 7.488-1.526 10.164-4h26.836zm-2 2v6h-46v-6zm-51.331 56.661c-.72.851-1.772 1.339-2.887 1.339-2.086 0-3.782-1.696-3.782-3.782 0-1.115.488-2.167 1.339-2.887l9.292-7.862c1.049 1.528 2.373 2.852 3.901 3.901zm16.331-8.661c-7.168 0-13-5.832-13-13 0-4.731 2.592-9.067 6.685-11.349.242.618.547 1.211.912 1.773-3.434 1.935-5.597 5.567-5.597 9.576 0 6.065 4.935 11 11 11s11-4.935 11-11c0-2.484-.829-4.847-2.346-6.777.548-.377 1.048-.817 1.512-1.297 1.831 2.298 2.834 5.124 2.834 8.074 0 7.168-5.832 13-13 13zm23-28v2h-2v-2h-6v2h-4.23l-.235.666c-1.131 3.19-4.158 5.334-7.535 5.334-2.18 0-4.218-.861-5.737-2.425s-2.321-3.627-2.259-5.811c.118-4.15 3.591-7.631 7.74-7.76v-.001c.085-.001.17-.003.254-.003 3.39 0 6.397 2.117 7.536 5.334l.236.666h19.23c.552 0 1 .448 1 1v2c0 .552-.448 1-1 1h-1v-2zm-27.116 7.021c1.894 1.92 4.417 2.979 7.116 2.979 1.358 0 2.662-.296 3.865-.804 1.377 1.625 2.135 3.658 2.135 5.804 0 4.963-4.037 9-9 9s-9-4.037-9-9c0-3.393 1.904-6.442 4.884-7.979zm16.088 16.979c1.892-2.51 3.028-5.621 3.028-9 0-3.555-1.268-6.948-3.561-9.657.27-.426.512-.873.718-1.343h4.843v-2h2v2h6v-2h2v2h3c1.654 0 3-1.346 3-3v-2c0-1.654-1.346-3-3-3h-17.843c-1.628-3.739-5.345-6.1-9.476-5.995-5.188.162-9.529 4.515-9.678 9.703-.019.668.029 1.327.137 1.97-1.577.813-2.97 1.886-4.141 3.153v-16.831h46v36z" data-original="#000000" class="active-path" data-old_color="#000000" fill="#FFFFFF"/><path d="m17 5h2v2h-2z" data-original="#000000" class="active-path" data-old_color="#000000" fill="#FFFFFF"/><path d="m21 5h2v2h-2z" data-original="#000000" class="active-path" data-old_color="#000000" fill="#FFFFFF"/><path d="m25 5h2v2h-2z" data-original="#000000" class="active-path" data-old_color="#000000" fill="#FFFFFF"/><path d="m27 19c-2.206 0-4 1.794-4 4s1.794 4 4 4 4-1.794 4-4-1.794-4-4-4zm0 6c-1.103 0-2-.897-2-2s.897-2 2-2 2 .897 2 2-.897 2-2 2z" data-original="#000000" class="active-path" data-old_color="#000000" fill="#FFFFFF"/><path d="m49 43h2v2h-2z" data-original="#000000" class="active-path" data-old_color="#000000" fill="#FFFFFF"/><path d="m57 43h2v2h-2z" data-original="#000000" class="active-path" data-old_color="#000000" fill="#FFFFFF"/><path d="m53 43h2v2h-2z" data-original="#000000" class="active-path" data-old_color="#000000" fill="#FFFFFF"/><path d="m45 39h14v2h-14z" data-original="#000000" class="active-path" data-old_color="#000000" fill="#FFFFFF"/><path d="m45 35h14v2h-14z" data-original="#000000" class="active-path" data-old_color="#000000" fill="#FFFFFF"/><path d="m45 31h14v2h-14z" data-original="#000000" class="active-path" data-old_color="#000000" fill="#FFFFFF"/><path d="m26 45v-2c-2.757 0-5-2.243-5-5h-2c0 3.859 3.141 7 7 7z" data-original="#000000" class="active-path" data-old_color="#000000" fill="#FFFFFF"/><path d="m6.722 55.329h1.899v2h-1.899z" transform="matrix(.707 -.707 .707 .707 -37.583 21.923)" data-original="#000000" class="active-path" data-old_color="#000000" fill="#FFFFFF"/><path d="m9.465 52.535h2v2h-2z" transform="matrix(.707 -.707 .707 .707 -34.79 23.08)" data-original="#000000" class="active-path" data-old_color="#000000" fill="#FFFFFF"/><path d="m12.293 49.707h2v2h-2z" transform="matrix(.707 -.707 .707 .707 -31.962 24.251)" data-original="#000000" class="active-path" data-old_color="#000000" fill="#FFFFFF"/></g> </svg>
